<?xml version="1.0" standalone="no"?>
<!DOCTYPE svg PUBLIC "-//W3C//DTD SVG 20010904//EN"
 "http://www.w3.org/TR/2001/REC-SVG-20010904/DTD/svg10.dtd">
<svg version="1.0" xmlns="http://www.w3.org/2000/svg"
 width="512.000000pt" height="512.000000pt" viewBox="0 0 512.000000 512.000000"
 preserveAspectRatio="xMidYMid meet">

<g transform="translate(0.000000,512.000000) scale(0.100000,-0.100000)"
fill="#000000" stroke="none">
<path d="M2350 5113 c-146 -7 -378 -26 -495 -39 -148 -17 -444 -60 -450 -66
-2 -2 -13 -50 -25 -106 -86 -422 -271 -626 -660 -728 -52 -14 -120 -27 -152
-31 -31 -3 -61 -9 -68 -13 -31 -19 -31 -993 0 -1386 67 -833 239 -1336 604
-1762 195 -227 512 -469 936 -714 114 -66 349 -191 441 -234 l67 -32 199 100
c1071 541 1501 962 1724 1685 111 361 169 1003 169 1870 l0 472 -37 6 c-326
53 -542 147 -655 287 -101 125 -190 348 -213 532 l-7 54 -57 10 c-368 70 -974
114 -1321 95z m250 -1483 l0 -1050 826 0 827 0 -7 -82 c-17 -195 -59 -439
-100 -574 -159 -527 -476 -875 -1136 -1247 -109 -61 -394 -207 -405 -207 -3 0
-6 474 -7 1053 l-3 1052 -866 3 -866 2 -7 78 c-24 281 -32 747 -17 1067 l6
140 55 8 c110 15 227 50 319 94 171 82 273 212 335 427 14 47 28 109 32 137 8
62 6 61 195 88 246 35 500 56 697 59 l122 2 0 -1050z"/>
</g>
</svg>
